# Blender v2.77 (sub 0) OBJ File: ''
# www.blender.org
mtllib sphere.mtl
o Sphere
v -0.064670 0.567214 -0.021013
v -0.123010 0.535959 -0.039969
v -0.169309 0.487278 -0.055012
v -0.199035 0.425935 -0.064670
v -0.209278 0.357937 -0.067998
v -0.199035 0.289938 -0.064670
v -0.169309 0.228596 -0.055012
v -0.123010 0.179914 -0.039969
v -0.064670 0.148659 -0.021013
v -0.055012 0.567214 -0.039969
v -0.104639 0.535959 -0.076025
v -0.144023 0.487278 -0.104639
v -0.169309 0.425935 -0.123010
v -0.178022 0.357937 -0.129341
v -0.169309 0.289938 -0.123010
v -0.144023 0.228596 -0.104639
v -0.104639 0.179914 -0.076025
v -0.055012 0.148659 -0.039969
v -0.039968 0.567214 -0.055012
v -0.076025 0.535959 -0.104639
v -0.104639 0.487278 -0.144023
v -0.123010 0.425935 -0.169309
v -0.129341 0.357937 -0.178022
v -0.123010 0.289938 -0.169309
v -0.104639 0.228596 -0.144023
v -0.076025 0.179914 -0.104639
v -0.039968 0.148659 -0.055012
v -0.021013 0.567214 -0.064670
v -0.039968 0.535959 -0.123010
v -0.055012 0.487278 -0.169309
v -0.064670 0.425935 -0.199035
v -0.067998 0.357937 -0.209278
v -0.064670 0.289938 -0.199035
v -0.055012 0.228596 -0.169309
v -0.039968 0.179914 -0.123010
v -0.021013 0.148659 -0.064670
v 0.000000 0.567214 -0.067999
v 0.000000 0.535959 -0.129341
v 0.000000 0.487278 -0.178022
v 0.000000 0.425935 -0.209278
v 0.000000 0.357937 -0.220048
v 0.000000 0.289938 -0.209278
v 0.000000 0.228596 -0.178022
v 0.000000 0.179914 -0.129341
v 0.000000 0.148659 -0.067998
v 0.021013 0.567214 -0.064670
v 0.039969 0.535959 -0.123010
v 0.055012 0.487278 -0.169309
v 0.064670 0.425935 -0.199035
v 0.067999 0.357937 -0.209278
v 0.064670 0.289938 -0.199035
v 0.055012 0.228596 -0.169309
v 0.039969 0.179914 -0.123010
v 0.021013 0.148659 -0.064670
v 0.039969 0.567214 -0.055012
v 0.076025 0.535959 -0.104639
v 0.104639 0.487278 -0.144023
v 0.123010 0.425935 -0.169309
v 0.129341 0.357937 -0.178022
v 0.123010 0.289938 -0.169309
v 0.104639 0.228596 -0.144023
v 0.076025 0.179914 -0.104639
v 0.039969 0.148659 -0.055012
v 0.000000 0.137889 0.000000
v 0.055012 0.567214 -0.039969
v 0.104639 0.535959 -0.076025
v 0.144023 0.487278 -0.104639
v 0.169309 0.425935 -0.123010
v 0.178022 0.357937 -0.129341
v 0.169309 0.289938 -0.123010
v 0.144023 0.228596 -0.104639
v 0.104639 0.179914 -0.076025
v 0.055012 0.148659 -0.039969
v 0.064671 0.567214 -0.021013
v 0.123011 0.535959 -0.039969
v 0.169309 0.487278 -0.055012
v 0.199035 0.425935 -0.064670
v 0.209278 0.357937 -0.067998
v 0.199035 0.289938 -0.064670
v 0.169309 0.228596 -0.055012
v 0.123011 0.179914 -0.039969
v 0.064670 0.148659 -0.021013
v 0.067999 0.567214 0.000000
v 0.129341 0.535959 -0.000000
v 0.178022 0.487278 0.000000
v 0.209278 0.425935 -0.000000
v 0.220048 0.357937 0.000000
v 0.209278 0.289938 -0.000000
v 0.178022 0.228596 0.000000
v 0.129341 0.179914 -0.000000
v 0.067999 0.148659 0.000000
v 0.064671 0.567214 0.021013
v 0.123011 0.535959 0.039969
v 0.169309 0.487278 0.055012
v 0.199035 0.425935 0.064670
v 0.209278 0.357937 0.067999
v 0.199035 0.289938 0.064670
v 0.169309 0.228596 0.055012
v 0.123011 0.179914 0.039969
v 0.064670 0.148659 0.021013
v 0.055012 0.567214 0.039969
v 0.104639 0.535959 0.076025
v 0.144023 0.487278 0.104639
v 0.169309 0.425935 0.123010
v 0.178022 0.357937 0.129341
v 0.169309 0.289938 0.123010
v 0.144023 0.228596 0.104639
v 0.104639 0.179914 0.076025
v 0.055012 0.148659 0.039969
v 0.039969 0.567214 0.055012
v 0.076025 0.535959 0.104639
v 0.104639 0.487278 0.144023
v 0.123011 0.425935 0.169309
v 0.129341 0.357937 0.178022
v 0.123011 0.289938 0.169309
v 0.104639 0.228596 0.144023
v 0.076025 0.179914 0.104639
v 0.039969 0.148659 0.055012
v 0.021013 0.567214 0.064670
v 0.039969 0.535959 0.123010
v 0.055012 0.487278 0.169309
v 0.064670 0.425935 0.199035
v 0.067999 0.357937 0.209278
v 0.064671 0.289938 0.199035
v 0.055012 0.228596 0.169309
v 0.039969 0.179914 0.123010
v 0.021013 0.148659 0.064670
v 0.000000 0.567214 0.067999
v 0.000000 0.535959 0.129341
v 0.000000 0.487278 0.178022
v 0.000000 0.425935 0.209278
v 0.000000 0.357937 0.220048
v 0.000000 0.289938 0.209278
v 0.000000 0.228596 0.178022
v 0.000000 0.179914 0.129341
v 0.000000 0.148659 0.067999
v -0.021013 0.567214 0.064670
v -0.039968 0.535959 0.123010
v -0.055012 0.487278 0.169309
v -0.064670 0.425935 0.199035
v -0.067998 0.357937 0.209278
v -0.064670 0.289938 0.199035
v -0.055012 0.228596 0.169309
v -0.039968 0.179914 0.123010
v -0.021013 0.148659 0.064670
v -0.039968 0.567214 0.055012
v -0.076025 0.535959 0.104639
v -0.104639 0.487278 0.144023
v -0.123010 0.425935 0.169309
v -0.129341 0.357937 0.178022
v -0.123010 0.289938 0.169309
v -0.104639 0.228596 0.144023
v -0.076025 0.179914 0.104639
v -0.039968 0.148659 0.055012
v 0.000000 0.577984 0.000000
v -0.055012 0.567214 0.039969
v -0.104639 0.535959 0.076025
v -0.144023 0.487278 0.104639
v -0.169309 0.425935 0.123010
v -0.178022 0.357937 0.129341
v -0.169309 0.289938 0.123011
v -0.144023 0.228596 0.104639
v -0.104639 0.179914 0.076025
v -0.055012 0.148659 0.039969
v -0.064670 0.567214 0.021013
v -0.123010 0.535959 0.039969
v -0.169309 0.487278 0.055012
v -0.199035 0.425935 0.064670
v -0.209278 0.357937 0.067999
v -0.199035 0.289938 0.064670
v -0.169309 0.228596 0.055012
v -0.123010 0.179914 0.039969
v -0.064670 0.148659 0.021013
v -0.067998 0.567214 0.000000
v -0.129341 0.535959 -0.000000
v -0.178022 0.487278 -0.000000
v -0.209278 0.425935 -0.000000
v -0.220048 0.357937 -0.000000
v -0.209278 0.289938 0.000000
v -0.178022 0.228596 -0.000000
v -0.129341 0.179914 -0.000000
v -0.067998 0.148659 0.000000
vn -0.1564 0.9874 -0.0248
vn -0.7027 -0.7027 -0.1113
vn -0.9758 0.1546 -0.1546
vn -0.4528 0.8887 -0.0717
vn -0.4528 -0.8887 -0.0717
vn -0.9758 -0.1546 -0.1546
vn -0.7027 0.7027 -0.1113
vn -0.1564 -0.9874 -0.0248
vn -0.8823 -0.4495 -0.1397
vn -0.8823 0.4495 -0.1397
vn -0.6339 -0.7027 -0.3230
vn -0.8803 0.1546 -0.4485
vn -0.4085 0.8887 -0.2081
vn -0.4085 -0.8887 -0.2081
vn -0.8803 -0.1546 -0.4485
vn -0.6339 0.7027 -0.3230
vn -0.1411 -0.9874 -0.0719
vn -0.7959 -0.4495 -0.4055
vn -0.7959 0.4495 -0.4055
vn -0.1411 0.9874 -0.0719
vn -0.6316 0.4495 -0.6316
vn -0.1120 0.9874 -0.1120
vn -0.5031 -0.7027 -0.5031
vn -0.6986 0.1546 -0.6986
vn -0.3242 0.8887 -0.3242
vn -0.3242 -0.8887 -0.3242
vn -0.6986 -0.1546 -0.6986
vn -0.5031 0.7027 -0.5031
vn -0.1120 -0.9874 -0.1120
vn -0.6316 -0.4495 -0.6316
vn -0.4055 -0.4495 -0.7959
vn -0.4055 0.4495 -0.7959
vn -0.0719 0.9874 -0.1411
vn -0.3230 -0.7027 -0.6339
vn -0.4485 0.1546 -0.8803
vn -0.2081 0.8887 -0.4085
vn -0.2081 -0.8887 -0.4085
vn -0.4485 -0.1546 -0.8803
vn -0.3230 0.7027 -0.6339
vn -0.0719 -0.9874 -0.1411
vn -0.1113 0.7027 -0.7027
vn -0.0248 -0.9874 -0.1564
vn -0.1397 -0.4495 -0.8823
vn -0.1397 0.4495 -0.8823
vn -0.0248 0.9874 -0.1564
vn -0.1113 -0.7027 -0.7027
vn -0.1546 0.1546 -0.9758
vn -0.0717 0.8887 -0.4528
vn -0.0717 -0.8887 -0.4528
vn -0.1546 -0.1546 -0.9758
vn 0.0717 -0.8887 -0.4528
vn 0.1546 -0.1546 -0.9758
vn 0.1113 0.7027 -0.7027
vn 0.0248 -0.9874 -0.1564
vn 0.1397 -0.4495 -0.8823
vn 0.1397 0.4495 -0.8823
vn 0.0248 0.9874 -0.1564
vn 0.1113 -0.7027 -0.7027
vn 0.1546 0.1546 -0.9758
vn 0.0717 0.8887 -0.4528
vn 0.4485 0.1546 -0.8803
vn 0.2081 0.8887 -0.4085
vn 0.2081 -0.8887 -0.4085
vn 0.4485 -0.1546 -0.8803
vn 0.3230 0.7027 -0.6339
vn 0.0719 -0.9874 -0.1411
vn 0.4055 -0.4495 -0.7959
vn 0.4055 0.4495 -0.7959
vn 0.0719 0.9874 -0.1411
vn 0.3230 -0.7027 -0.6339
vn 0.1120 0.9874 -0.1120
vn 0.5031 -0.7027 -0.5031
vn 0.6986 0.1546 -0.6986
vn 0.3242 0.8887 -0.3242
vn 0.3242 -0.8887 -0.3242
vn 0.6986 -0.1546 -0.6986
vn 0.5031 0.7027 -0.5031
vn 0.1120 -0.9874 -0.1120
vn 0.6316 -0.4495 -0.6316
vn 0.6316 0.4495 -0.6316
vn 0.7959 0.4495 -0.4055
vn 0.1411 0.9874 -0.0719
vn 0.6339 -0.7027 -0.3230
vn 0.8803 0.1546 -0.4485
vn 0.4085 0.8887 -0.2081
vn 0.4085 -0.8887 -0.2081
vn 0.8803 -0.1546 -0.4485
vn 0.6339 0.7027 -0.3230
vn 0.1411 -0.9874 -0.0719
vn 0.7959 -0.4495 -0.4055
vn 0.1564 -0.9874 -0.0248
vn 0.8823 -0.4495 -0.1397
vn 0.8823 0.4495 -0.1397
vn 0.1564 0.9874 -0.0248
vn 0.7027 -0.7027 -0.1113
vn 0.9758 0.1546 -0.1546
vn 0.4528 0.8887 -0.0717
vn 0.4528 -0.8887 -0.0717
vn 0.9758 -0.1546 -0.1546
vn 0.7027 0.7027 -0.1113
vn 0.9758 -0.1546 0.1546
vn 0.7027 0.7027 0.1113
vn 0.1564 -0.9874 0.0248
vn 0.8823 -0.4495 0.1397
vn 0.8823 0.4495 0.1397
vn 0.1564 0.9874 0.0248
vn 0.7027 -0.7027 0.1113
vn 0.9758 0.1546 0.1546
vn 0.4528 0.8887 0.0717
vn 0.4528 -0.8887 0.0717
vn 0.4085 0.8887 0.2081
vn 0.4085 -0.8887 0.2081
vn 0.8803 -0.1546 0.4485
vn 0.6339 0.7027 0.3230
vn 0.1411 -0.9874 0.0719
vn 0.7959 -0.4495 0.4055
vn 0.7959 0.4495 0.4055
vn 0.1411 0.9874 0.0719
vn 0.6339 -0.7027 0.3230
vn 0.8803 0.1546 0.4485
vn 0.6986 0.1546 0.6986
vn 0.3242 0.8887 0.3242
vn 0.3242 -0.8887 0.3242
vn 0.6986 -0.1546 0.6986
vn 0.5031 0.7027 0.5031
vn 0.1120 -0.9874 0.1120
vn 0.6316 -0.4495 0.6316
vn 0.6316 0.4495 0.6316
vn 0.1120 0.9874 0.1120
vn 0.5031 -0.7027 0.5031
vn 0.0719 0.9874 0.1411
vn 0.3230 -0.7027 0.6339
vn 0.4485 0.1546 0.8803
vn 0.2081 0.8887 0.4085
vn 0.2081 -0.8887 0.4085
vn 0.4485 -0.1546 0.8803
vn 0.3230 0.7027 0.6339
vn 0.0719 -0.9874 0.1411
vn 0.4055 -0.4495 0.7959
vn 0.4055 0.4495 0.7959
vn 0.1397 -0.4495 0.8823
vn 0.1397 0.4495 0.8823
vn 0.0248 0.9874 0.1564
vn 0.1113 -0.7027 0.7027
vn 0.1546 0.1546 0.9758
vn 0.0717 0.8887 0.4528
vn 0.0717 -0.8887 0.4528
vn 0.1546 -0.1546 0.9758
vn 0.1113 0.7027 0.7027
vn 0.0248 -0.9874 0.1564
vn -0.1113 0.7027 0.7027
vn -0.0248 -0.9874 0.1564
vn -0.1397 -0.4495 0.8823
vn -0.1397 0.4495 0.8823
vn -0.0248 0.9874 0.1564
vn -0.1113 -0.7027 0.7027
vn -0.1546 0.1546 0.9758
vn -0.0717 0.8887 0.4528
vn -0.0717 -0.8887 0.4528
vn -0.1546 -0.1546 0.9758
vn -0.4485 -0.1546 0.8803
vn -0.3230 0.7027 0.6339
vn -0.0719 -0.9874 0.1411
vn -0.4055 -0.4495 0.7959
vn -0.4055 0.4495 0.7959
vn -0.0719 0.9874 0.1411
vn -0.3230 -0.7027 0.6339
vn -0.4485 0.1546 0.8803
vn -0.2081 0.8887 0.4085
vn -0.2081 -0.8887 0.4085
vn -0.3242 0.8887 0.3242
vn -0.3242 -0.8887 0.3242
vn -0.6986 -0.1546 0.6986
vn -0.5031 0.7027 0.5031
vn -0.1120 -0.9874 0.1120
vn -0.6316 -0.4495 0.6316
vn -0.6316 0.4495 0.6316
vn -0.1120 0.9874 0.1120
vn -0.5031 -0.7027 0.5031
vn -0.6986 0.1546 0.6986
vn -0.6339 -0.7027 0.3230
vn -0.8803 0.1546 0.4485
vn -0.4085 0.8887 0.2081
vn -0.4085 -0.8887 0.2081
vn -0.8803 -0.1546 0.4485
vn -0.6339 0.7027 0.3230
vn -0.1411 -0.9874 0.0719
vn -0.7959 -0.4495 0.4055
vn -0.7959 0.4495 0.4055
vn -0.1411 0.9874 0.0719
vn -0.8823 0.4495 0.1397
vn -0.1564 0.9874 0.0248
vn -0.7027 -0.7027 0.1113
vn -0.9758 0.1546 0.1546
vn -0.4528 0.8887 0.0717
vn -0.4528 -0.8887 0.0717
vn -0.9758 -0.1546 0.1546
vn -0.7027 0.7027 0.1113
vn -0.1564 -0.9874 0.0248
vn -0.8823 -0.4495 0.1397
usemtl None
s off
f 174//1 155//1 1//1
f 181//2 180//2 7//2 8//2
f 178//3 177//3 4//3 5//3
f 175//4 174//4 1//4 2//4
f 182//5 181//5 8//5 9//5
f 179//6 178//6 5//6 6//6
f 176//7 175//7 2//7 3//7
f 64//8 182//8 9//8
f 180//9 179//9 6//9 7//9
f 177//10 176//10 3//10 4//10
f 8//11 7//11 16//11 17//11
f 5//12 4//12 13//12 14//12
f 2//13 1//13 10//13 11//13
f 9//14 8//14 17//14 18//14
f 6//15 5//15 14//15 15//15
f 3//16 2//16 11//16 12//16
f 64//17 9//17 18//17
f 7//18 6//18 15//18 16//18
f 4//19 3//19 12//19 13//19
f 1//20 155//20 10//20
f 13//21 12//21 21//21 22//21
f 10//22 155//22 19//22
f 17//23 16//23 25//23 26//23
f 14//24 13//24 22//24 23//24
f 11//25 10//25 19//25 20//25
f 18//26 17//26 26//26 27//26
f 15//27 14//27 23//27 24//27
f 12//28 11//28 20//28 21//28
f 64//29 18//29 27//29
f 16//30 15//30 24//30 25//30
f 25//31 24//31 33//31 34//31
f 22//32 21//32 30//32 31//32
f 19//33 155//33 28//33
f 26//34 25//34 34//34 35//34
f 23//35 22//35 31//35 32//35
f 20//36 19//36 28//36 29//36
f 27//37 26//37 35//37 36//37
f 24//38 23//38 32//38 33//38
f 21//39 20//39 29//39 30//39
f 64//40 27//40 36//40
f 30//41 29//41 38//41 39//41
f 64//42 36//42 45//42
f 34//43 33//43 42//43 43//43
f 31//44 30//44 39//44 40//44
f 28//45 155//45 37//45
f 35//46 34//46 43//46 44//46
f 32//47 31//47 40//47 41//47
f 29//48 28//48 37//48 38//48
f 36//49 35//49 44//49 45//49
f 33//50 32//50 41//50 42//50
f 45//51 44//51 53//51 54//51
f 42//52 41//52 50//52 51//52
f 39//53 38//53 47//53 48//53
f 64//54 45//54 54//54
f 43//55 42//55 51//55 52//55
f 40//56 39//56 48//56 49//56
f 37//57 155//57 46//57
f 44//58 43//58 52//58 53//58
f 41//59 40//59 49//59 50//59
f 38//60 37//60 46//60 47//60
f 50//61 49//61 58//61 59//61
f 47//62 46//62 55//62 56//62
f 54//63 53//63 62//63 63//63
f 51//64 50//64 59//64 60//64
f 48//65 47//65 56//65 57//65
f 64//66 54//66 63//66
f 52//67 51//67 60//67 61//67
f 49//68 48//68 57//68 58//68
f 46//69 155//69 55//69
f 53//70 52//70 61//70 62//70
f 55//71 155//71 65//71
f 62//72 61//72 71//72 72//72
f 59//73 58//73 68//73 69//73
f 56//74 55//74 65//74 66//74
f 63//75 62//75 72//75 73//75
f 60//76 59//76 69//76 70//76
f 57//77 56//77 66//77 67//77
f 64//78 63//78 73//78
f 61//79 60//79 70//79 71//79
f 58//80 57//80 67//80 68//80
f 68//81 67//81 76//81 77//81
f 65//82 155//82 74//82
f 72//83 71//83 80//83 81//83
f 69//84 68//84 77//84 78//84
f 66//85 65//85 74//85 75//85
f 73//86 72//86 81//86 82//86
f 70//87 69//87 78//87 79//87
f 67//88 66//88 75//88 76//88
f 64//89 73//89 82//89
f 71//90 70//90 79//90 80//90
f 64//91 82//91 91//91
f 80//92 79//92 88//92 89//92
f 77//93 76//93 85//93 86//93
f 74//94 155//94 83//94
f 81//95 80//95 89//95 90//95
f 78//96 77//96 86//96 87//96
f 75//97 74//97 83//97 84//97
f 82//98 81//98 90//98 91//98
f 79//99 78//99 87//99 88//99
f 76//100 75//100 84//100 85//100
f 88//101 87//101 96//101 97//101
f 85//102 84//102 93//102 94//102
f 64//103 91//103 100//103
f 89//104 88//104 97//104 98//104
f 86//105 85//105 94//105 95//105
f 83//106 155//106 92//106
f 90//107 89//107 98//107 99//107
f 87//108 86//108 95//108 96//108
f 84//109 83//109 92//109 93//109
f 91//110 90//110 99//110 100//110
f 93//111 92//111 101//111 102//111
f 100//112 99//112 108//112 109//112
f 97//113 96//113 105//113 106//113
f 94//114 93//114 102//114 103//114
f 64//115 100//115 109//115
f 98//116 97//116 106//116 107//116
f 95//117 94//117 103//117 104//117
f 92//118 155//118 101//118
f 99//119 98//119 107//119 108//119
f 96//120 95//120 104//120 105//120
f 105//121 104//121 113//121 114//121
f 102//122 101//122 110//122 111//122
f 109//123 108//123 117//123 118//123
f 106//124 105//124 114//124 115//124
f 103//125 102//125 111//125 112//125
f 64//126 109//126 118//126
f 107//127 106//127 115//127 116//127
f 104//128 103//128 112//128 113//128
f 101//129 155//129 110//129
f 108//130 107//130 116//130 117//130
f 110//131 155//131 119//131
f 117//132 116//132 125//132 126//132
f 114//133 113//133 122//133 123//133
f 111//134 110//134 119//134 120//134
f 118//135 117//135 126//135 127//135
f 115//136 114//136 123//136 124//136
f 112//137 111//137 120//137 121//137
f 64//138 118//138 127//138
f 116//139 115//139 124//139 125//139
f 113//140 112//140 121//140 122//140
f 125//141 124//141 133//141 134//141
f 122//142 121//142 130//142 131//142
f 119//143 155//143 128//143
f 126//144 125//144 134//144 135//144
f 123//145 122//145 131//145 132//145
f 120//146 119//146 128//146 129//146
f 127//147 126//147 135//147 136//147
f 124//148 123//148 132//148 133//148
f 121//149 120//149 129//149 130//149
f 64//150 127//150 136//150
f 130//151 129//151 138//151 139//151
f 64//152 136//152 145//152
f 134//153 133//153 142//153 143//153
f 131//154 130//154 139//154 140//154
f 128//155 155//155 137//155
f 135//156 134//156 143//156 144//156
f 132//157 131//157 140//157 141//157
f 129//158 128//158 137//158 138//158
f 136//159 135//159 144//159 145//159
f 133//160 132//160 141//160 142//160
f 142//161 141//161 150//161 151//161
f 139//162 138//162 147//162 148//162
f 64//163 145//163 154//163
f 143//164 142//164 151//164 152//164
f 140//165 139//165 148//165 149//165
f 137//166 155//166 146//166
f 144//167 143//167 152//167 153//167
f 141//168 140//168 149//168 150//168
f 138//169 137//169 146//169 147//169
f 145//170 144//170 153//170 154//170
f 147//171 146//171 156//171 157//171
f 154//172 153//172 163//172 164//172
f 151//173 150//173 160//173 161//173
f 148//174 147//174 157//174 158//174
f 64//175 154//175 164//175
f 152//176 151//176 161//176 162//176
f 149//177 148//177 158//177 159//177
f 146//178 155//178 156//178
f 153//179 152//179 162//179 163//179
f 150//180 149//180 159//180 160//180
f 163//181 162//181 171//181 172//181
f 160//182 159//182 168//182 169//182
f 157//183 156//183 165//183 166//183
f 164//184 163//184 172//184 173//184
f 161//185 160//185 169//185 170//185
f 158//186 157//186 166//186 167//186
f 64//187 164//187 173//187
f 162//188 161//188 170//188 171//188
f 159//189 158//189 167//189 168//189
f 156//190 155//190 165//190
f 168//191 167//191 176//191 177//191
f 165//192 155//192 174//192
f 172//193 171//193 180//193 181//193
f 169//194 168//194 177//194 178//194
f 166//195 165//195 174//195 175//195
f 173//196 172//196 181//196 182//196
f 170//197 169//197 178//197 179//197
f 167//198 166//198 175//198 176//198
f 64//199 173//199 182//199
f 171//200 170//200 179//200 180//200
